<svg viewBox="0 0 1380.18 953.7" xmlns:xlink="http://www.w3.org/1999/xlink" xmlns="http://www.w3.org/2000/svg"><defs><style>.cls-1{fill:#e6f0f5;}.cls-2{fill:url(#linear-gradient);}.cls-3{fill:url(#linear-gradient-2);}.cls-4{fill:url(#linear-gradient-3);}.cls-5{fill:#fff;}.cls-6{fill:url(#linear-gradient-4);}.cls-7{fill:url(#linear-gradient-5);}.cls-8{fill:url(#linear-gradient-6);}.cls-9{fill:url(#linear-gradient-7);}.cls-10{fill:url(#linear-gradient-8);}.cls-11{fill:url(#linear-gradient-9);}.cls-12{fill:url(#linear-gradient-10);}.cls-13{fill:#0a0e1e;}.cls-14{fill:url(#linear-gradient-11);}.cls-15{opacity:0.2;}.cls-16{fill:url(#linear-gradient-12);}.cls-17{fill:url(#linear-gradient-13);}.cls-18{fill:url(#linear-gradient-14);}.cls-19{fill:url(#linear-gradient-15);}.cls-20{fill:url(#linear-gradient-16);}.cls-21{fill:url(#linear-gradient-17);}.cls-22{fill:url(#linear-gradient-18);}.cls-23{fill:url(#linear-gradient-19);}.cls-24{fill:url(#linear-gradient-20);}.cls-25{fill:#161c3e;}</style><linearGradient gradientUnits="userSpaceOnUse" y2="837.84" x2="991.7" y1="997.03" x1="660.06" id="linear-gradient"><stop stop-color="#9dcef3" offset="0"></stop><stop stop-color="#ddeffd" offset="1"></stop></linearGradient><linearGradient xlink:href="#linear-gradient" y2="827.35" x2="730.75" y1="811.35" x1="342.75" id="linear-gradient-2"></linearGradient><linearGradient gradientUnits="userSpaceOnUse" y2="771.13" x2="1043.48" y1="951.84" x1="1112.84" id="linear-gradient-3"><stop stop-color="#90bfa5" offset="0"></stop><stop stop-color="#c4dfcc" offset="1"></stop></linearGradient><linearGradient xlink:href="#linear-gradient-3" y2="905.42" x2="1097.18" y1="905.42" x1="971" id="linear-gradient-4"></linearGradient><linearGradient xlink:href="#linear-gradient-3" y2="891.81" x2="1257.58" y1="891.81" x1="1121.66" id="linear-gradient-5"></linearGradient><linearGradient xlink:href="#linear-gradient-3" y2="728.35" x2="229.58" y1="953.35" x1="297.58" id="linear-gradient-6"></linearGradient><linearGradient xlink:href="#linear-gradient-3" y2="896.63" x2="255.96" y1="896.63" x1="105.18" id="linear-gradient-7"></linearGradient><linearGradient xlink:href="#linear-gradient-3" y2="816.69" x2="352.96" y1="937.69" x1="372.96" id="linear-gradient-8"></linearGradient><linearGradient xlink:href="#linear-gradient" y2="596.44" x2="1376.18" y1="596.44" x1="1109.49" id="linear-gradient-9"></linearGradient><linearGradient xlink:href="#linear-gradient" y2="339.36" x2="32.25" y1="330.9" x1="408.96" id="linear-gradient-10"></linearGradient><linearGradient gradientUnits="userSpaceOnUse" y2="324.76" x2="1380.18" y1="324.76" x1="964" id="linear-gradient-11"><stop stop-color="#ed6263" offset="0"></stop><stop stop-color="#ffa9a9" offset="1"></stop></linearGradient><linearGradient xlink:href="#linear-gradient-11" y2="188.3" x2="1183.27" y1="188.3" x1="1001.67" id="linear-gradient-12"></linearGradient><linearGradient xlink:href="#linear-gradient-11" y2="804.53" x2="594.01" y1="564.5" x1="948.05" id="linear-gradient-13"></linearGradient><linearGradient gradientUnits="userSpaceOnUse" y2="752.04" x2="169.68" y1="507.62" x1="572.24" id="linear-gradient-14"><stop stop-color="#ed6263" offset="0"></stop><stop stop-color="#f07071" offset="0.19"></stop><stop stop-color="#ffa9a9" offset="1"></stop></linearGradient><linearGradient xlink:href="#linear-gradient-11" y2="96.89" x2="572.18" y1="207.9" x1="1022.22" id="linear-gradient-15"></linearGradient><linearGradient gradientUnits="userSpaceOnUse" y2="462.73" x2="681" y1="462.73" x1="468" id="linear-gradient-16"><stop stop-color="#002452" offset="0"></stop><stop stop-color="#001328" offset="1"></stop></linearGradient><linearGradient gradientUnits="userSpaceOnUse" y2="386.73" x2="1056.22" y1="386.73" x1="603.04" id="linear-gradient-17"><stop stop-color="#404aa9" offset="0"></stop><stop stop-color="#7284d3" offset="1"></stop></linearGradient><linearGradient xlink:href="#linear-gradient-16" y2="813.11" x2="198.83" y1="813.11" x1="59.44" id="linear-gradient-18"></linearGradient><linearGradient xlink:href="#linear-gradient-16" y2="788.69" x2="628.45" y1="788.69" x1="498.09" id="linear-gradient-19"></linearGradient><linearGradient xlink:href="#linear-gradient-16" y2="121.44" x2="1063.45" y1="173.44" x1="1189.45" id="linear-gradient-20"></linearGradient></defs><g data-name="图层 2" id="图层_2"><g id="Run"><g id="Background"><path d="M1281.22,952.23H102.59S-10.67,947.3.82,809.41c0,0,62.38-446.5,490.82-522,0,0,146.1-26.26,241.31,105.06,0,0,93.57,114.91,242.95,73.87,0,0,274.13-83.72,362.78,305.33C1338.68,771.66,1369.87,904.62,1281.22,952.23Z" class="cls-1"></path></g><g id="Plant"><path d="M1127,952.23H587.59S678.78,766,744,790.29c0,0,46.43,31,22.11,78.48,0,0,116.06-92.85,91.74,21,0,0,71.85-45.32,75.17-8.84,0,0,176.86-88.43,133.75,15.47C1066.77,896.4,1169.57,874.3,1127,952.23Z" class="cls-2"></path><path d="M306,952.23H746.9s-9.45-102.63-91.83-83.05c0,0,29.71-122.89-73.59-66.17,0,0,27.68-120.86-68.2-54.69,0,0,24.31-191.76-124.91,45.91C388.37,794.23,342.46,734.81,306,952.23Z" class="cls-3"></path></g><g data-name="Plant" id="Plant-2"><path d="M1140.1,902.34h0a58.08,58.08,0,0,1-.74,5.81s-3,29.19-11.86,43.67h-43l-38.57-48.34s-8.22-11.2-9.72-24.06h0a29.87,29.87,0,0,1,.38-9.83s2.1-16.09-14-30.38c-14-12.42-26.36-43.18,14-73.61,10-7.58,39.93-21.42,50.12,9.5,5.13,15.53,5.23,17.76,2.47,51.11-.74,8.84,6.77,25.86,22.93,29.36C1125.9,858.59,1142.19,876,1140.1,902.34Z" class="cls-4"></path><path d="M1103.15,953.7c-41.83-54.61-56.86-166.33-57-167.45l3-.39c.15,1.11,15.07,112,56.41,166Z" class="cls-5"></path><path d="M1097.18,951.83H1034c-18.18-5.65-16.68-17.73-17.33-25-1.29-14.4-18.38-13.76-25.71-15.19-25.3-4.94-21.74-29.73-15.19-37.4,24.69-28.91,53.62-10.16,59.6,3.51.25.59.52,1.16.79,1.71h0c7.6,15.45,19.07,13.48,19.07,13.48C1090.17,880.2,1096.33,940.4,1097.18,951.83Z" class="cls-6"></path><path d="M1243.36,877.72c-6.77,5.19-23.37,12.85-21,26.87,0,0,4.3,32.23-31.38,47.24h-69.29l2.51-5.17s3.8-24.88,15.93-44.31h0c6.91-11.06,16.51-20.36,29.65-22.28,5.52-.81,12.85,0,16.36-15.19,0,0,.86-44.29,47.91-30.38C1244.62,837.62,1275.49,853.07,1243.36,877.72Z" class="cls-7"></path><path d="M1079.86,952.65c-25.94-39.83-79.67-66.31-80.21-66.57l1.32-2.7c.54.27,55,27.11,81.41,67.63Z" class="cls-5"></path><path d="M1157.07,952.19l-2.69-1.33c1.63-3.31,40.39-81.49,77.83-99l1.27,2.72C1197,871.64,1157.46,951.38,1157.07,952.19Z" class="cls-5"></path></g><g data-name="Plant" id="Plant-3"><path d="M326.67,910.92c-.75,2.13-1.62,4.28-2.63,6.46,0,0-7.12,18.73-16.92,33.85H249.5l-1.88-.5L211,892.23s-8.09-8.93-5-24c0,0,2-7,11.75-26.58,4.43-8.9,7.33-17.84-6.82-39.18a46.63,46.63,0,0,1-3-5.24c-9.69-19.94-9.27-54.35,41.6-75,13.85-5.62,52.41-12.38,54.66,26.24,1,17.38.67,21.27-9,48.77-1.13,3.22-2.39,6.76-3.79,10.68-3.55,9.93-.13,31.77,17.36,40.73C323.75,856.33,337.13,881.28,326.67,910.92Z" class="cls-8"></path><path d="M268.79,951.49c-31.31-75.44-14.42-201.34-14.24-202.6l3,.41c-.17,1.25-17,126.36,14,201Z" class="cls-5"></path><path d="M256,951.65H180.87c-21.6-6.71-19.82-21.07-20.6-29.75-1.53-17.11-21.84-16.36-30.55-18-30.07-5.87-27.72-33.62-18-44.44,30.1-33.69,63.72-12.08,70.82,4.17.31.7.63,1.37.95,2h0c9,18.35,22.66,16,22.66,16C247.62,866.53,255,938.07,256,951.65Z" class="cls-9"></path><path d="M429.68,863.58c-8.05,6.17-27.77,15.27-25,31.93,0,0,5.1,38.3-37.3,56.14H285l3-6.14s4.51-29.57,18.93-52.67h0c8.2-13.14,19.61-24.19,35.22-26.48,6.57-1,15.28,0,19.45-18.05,0,0,1-52.63,56.94-36.11C431.18,815.92,467.87,834.29,429.68,863.58Z" class="cls-10"></path><path d="M235.61,952.46c-30.88-47.4-94.79-78.89-95.43-79.2l1.31-2.7c.65.32,65.31,32.18,96.64,80.27Z" class="cls-5"></path><path d="M326.87,952l-2.69-1.32c1.94-3.94,48-96.76,92.37-117.58l1.27,2.72C374.36,856.14,327.35,951,326.87,952Z" class="cls-5"></path></g><g id="Cloud"><path d="M1109.49,638.38h266.69s-11.68-44.24-47.32-30.11c0,0-5.64-42.81-43.69-53.51a59.48,59.48,0,0,0-29.75-.44c-16.53,3.89-47.38,15.2-67.27,47.19,0,0-25.2-20.89-48.55,17.21,0,0-27.65-3.69-30.11,21.51" class="cls-11"></path><path d="M39,389.23H389.25s-15.33-58.11-62.14-39.55c0,0-7.41-56.23-57.39-70.28a78.1,78.1,0,0,0-39.07-.58c-21.71,5.11-62.23,20-88.35,62,0,0-33.09-27.43-63.76,22.6,0,0-36.31-4.84-39.54,28.25" class="cls-12"></path></g><g id="Man"><path d="M468,500.23s30,88,77,101l9-13-74-94Z" class="cls-13"></path><path d="M1377.8,159.64,1353,220.82l-38.86,71.12L1166.88,488.07a45.44,45.44,0,0,1-74.6-2.77l-73.59-114.84L964,285.12l69.4-89.23,38.5,70.9L1135,383c.89-.89,152.17-135.34,152.17-135.34s5.63-34.77-15.58-50.57c0,0,23-21.19,35,18.6l17.72-16.51s5.65-41.95,23.05-42.73c0,0,4.18-13.51,21-11.53a8.5,8.5,0,0,1,3.8-1.49C1381.15,142,1381.88,151.54,1377.8,159.64Z" class="cls-14"></path><path d="M1071.9,266.79c-5.37,46.47-34.29,83.77-53.21,103.67L964,285.12l69.4-89.23Z" class="cls-15"></path><path d="M1032.28,269.23l52.5-30.07s52.35,63,98.49-64.78l-83-67-47,57.68-51.6,38.06Z" class="cls-16"></path><path d="M901,711.73l-287,68-37-82,215-76-5.4-5-20.6-19,113-51s7.54,11.22,17.18,27.67c12.84,21.9,29.4,53.06,36.82,79.33C946,699.73,901,711.73,901,711.73Z" class="cls-17"></path><path d="M556.08,584.11,525.89,605l-49,33.9a78.1,78.1,0,0,1-7,4.34L188,798.23l-47.56-78.89L403.51,555.88l58.36-48.05,31.23-25.7Z" class="cls-18"></path><path d="M556.08,584.11,525.89,605c-16.5-47.51-51.23-84.6-64-97.16l31.23-25.7Z" class="cls-15"></path><path d="M896.18,574.4A268.89,268.89,0,0,1,786.6,616.75l-20.6-19,113-51S886.54,558,896.18,574.4Z" class="cls-15"></path><path d="M1050.5,270.23l-148,79-10.28-18-61.72-108,36.23-32.44,20.77-18.6.27-.25-.7-1.1-56.5-88.78L676.14,97.7l-14.25,21.19-35.8,51.79c-12.85-19,8.5-43.45,8.5-43.45l-24.1-4L553.7,142.89a6.8,6.8,0,0,1-5-12.61l36.54-16.67-55.09,6.15a7.38,7.38,0,0,1-8-5.62,7.56,7.56,0,0,1,6.1-9L581,95.24,533,91.94a7,7,0,0,1-6.63-6.53,6.85,6.85,0,0,1,6.24-7.15L580.84,74,547.5,66.87a5.46,5.46,0,0,1-4.17-6.62,5.6,5.6,0,0,1,5.89-4.15l32.7,2.24L618.46,53l37.11-2.16L848.37,2A64.56,64.56,0,0,1,913.7,23.1l99.8,119.13,16.5,18c48,34-4.5,111-4.5,111Z" class="cls-19"></path><path d="M681,513.73l-136,87a206.43,206.43,0,0,0-32-61.5c-13.51-17.62-45-39.5-45-39.5l88-71s33-88.5,122-104Z" class="cls-20"></path><path d="M1038,166.73l-4-3s23,36-9,77c0,0-72,81-129,39,0,0-54.9-35.24-37.45-81.62,0,0-23.55-.38-85.55,59.62l-95,67s-79.63,19.14-74.75,97.61a115.9,115.9,0,0,0,19.81,57.28c20.13,29.93,66.68,87.56,148.94,130.11,0,0,89-28,118-56,0,0-51-83-98-129l128-51s149-38,134-117l-16,8S1079,201.23,1038,166.73Z" class="cls-21"></path><polygon points="198.83 796.33 152.14 820.88 159.31 908.74 59.44 761.2 141.57 717.48 198.83 796.33" class="cls-22"></polygon><polygon points="628.45 781.25 577.99 796.64 568.6 884.29 498.09 720.68 586.95 693.1 628.45 781.25" class="cls-23"></polygon><path d="M1118.94,181.92s11-22.66-1.69-30.42c-4.66-2.86-18.44-2.93-20.49,11.79a57.69,57.69,0,0,1-32.84,8.87c-3.55-.13-14.87-2.94-14.87-2.94s1.12-50.75,51.25-74.26c0,0,34.8-20.37,87.79,50.11a30.7,30.7,0,0,1,6.26,16.28c.43,6.47-1.32,13.51-10.59,14.64a19.42,19.42,0,0,1-12-2.54l-8.47-4.84h0a19.37,19.37,0,0,1-15.07,11.18l-16,2.13-6.21,9.76Z" class="cls-24"></path><rect transform="translate(956.25 1473.39) rotate(-80.78)" height="3" width="37.48" y="173.23" x="1325.26" class="cls-25"></rect><rect transform="translate(877.08 1451.6) rotate(-76.27)" height="3" width="46.32" y="165.73" x="1339.84" class="cls-25"></rect><path d="M1289.31,248l-2.63-1.44c.7-1.28,17.36-31.43,36.35-47.43l1.93,2.29C1306.39,217,1289.48,247.64,1289.31,248Z" class="cls-25"></path><path d="M967,233.23S920,245,866.73,190.79l20.77-18.6C906,195.38,938,229.94,967,233.23Z" class="cls-15"></path></g></g></g></svg>